<svg version="1.0" xmlns="http://www.w3.org/2000/svg"
 width="1024.000000pt" height="1024.000000pt" viewBox="0 0 1024.000000 1024.000000"
 preserveAspectRatio="xMidYMid meet">

<g transform="translate(0.000000,1024.000000) scale(0.100000,-0.100000)"
fill="" stroke="none">
<path d="M0 5120 l0 -5120 5120 0 5120 0 0 5120 0 5120 -5120 0 -5120 0 0
-5120z m7603 4264 c82 -42 120 -107 120 -209 1 -112 -24 -155 -162 -283 -331
-309 -467 -425 -530 -455 -61 -29 -66 -30 -124 -19 -33 6 -77 23 -99 37 -57
38 -49 8 17 -63 30 -33 55 -68 55 -79 0 -28 -46 -91 -80 -108 -16 -8 -45 -15
-64 -15 -30 0 -41 8 -83 57 -65 76 -92 104 -132 134 -31 23 -33 28 -27 61 14
78 84 143 165 154 46 6 48 7 65 57 19 53 72 111 492 533 158 160 187 184 230
198 65 20 118 20 157 0z m-2019 -399 c153 -21 278 -46 441 -90 186 -51 481
-165 499 -193 5 -8 -95 -102 -108 -102 -4 0 -86 30 -184 66 -237 89 -434 137
-732 180 -25 3 -56 8 -70 10 -14 3 -95 7 -181 11 -446 17 -1052 -123 -1469
-338 -205 -107 -461 -301 -646 -491 -107 -110 -278 -332 -372 -483 -114 -183
-226 -431 -296 -650 -34 -109 -88 -374 -101 -503 -22 -201 -19 -493 5 -682 27
-210 42 -275 111 -485 61 -186 180 -447 257 -563 40 -60 184 -236 204 -248 14
-9 2 28 -28 88 -13 26 -24 50 -24 52 0 20 210 80 428 122 127 24 361 88 567
154 203 65 266 75 480 75 156 0 213 -4 315 -23 264 -49 303 -53 600 -58 162
-3 311 -10 330 -15 48 -12 114 -56 134 -89 49 -83 -17 -205 -137 -253 -87 -34
-170 -45 -412 -52 -250 -6 -353 -21 -540 -75 -179 -52 -192 -64 -98 -91 72
-20 222 -16 328 10 74 18 138 24 355 31 290 10 343 18 490 75 52 20 165 58
250 84 85 27 263 87 395 134 132 46 290 101 352 121 119 38 267 60 334 50 48
-8 98 -40 118 -76 15 -25 14 -29 -9 -53 -14 -14 -49 -40 -80 -57 -30 -17 -100
-59 -155 -92 -287 -172 -773 -413 -1010 -501 -49 -18 -157 -60 -240 -93 -410
-164 -452 -177 -565 -175 -82 1 -137 11 -680 127 -63 13 -167 38 -230 54 -138
36 -532 117 -648 133 -91 13 -287 8 -302 -7 -14 -14 53 -93 130 -151 38 -28
127 -88 199 -132 72 -45 164 -103 204 -129 41 -27 100 -59 131 -71 83 -34 73
-47 -41 -54 -54 -4 -116 -12 -137 -18 -33 -9 -41 -8 -48 5 -5 8 -57 49 -116
90 -268 186 -492 378 -621 531 -265 316 -485 691 -603 1025 -186 533 -210
1216 -60 1755 133 476 421 967 763 1300 162 158 262 239 439 357 371 247 904
429 1375 468 146 12 576 3 709 -15z m-302 -212 c7 -26 -1 -43 -19 -43 -10 0
-14 6 -10 19 3 14 1 18 -9 14 -8 -3 -14 -1 -14 4 0 27 45 32 52 6z m-279 -13
c-3 -11 -14 -20 -25 -20 -16 0 -17 3 -8 20 6 11 17 20 24 20 9 0 12 -7 9 -20z
m131 3 c8 -19 -8 -38 -23 -29 -16 10 -13 46 3 46 8 0 17 -8 20 -17z m274 -5
c-4 -27 -23 -34 -32 -13 -8 21 1 35 20 35 10 0 14 -8 12 -22z m-678 -122 c0
-24 -23 -56 -40 -56 -12 0 -20 28 -13 48 14 38 53 44 53 8z m140 0 c0 -27 -24
-56 -46 -56 -17 0 -19 51 -2 68 21 21 48 14 48 -12z m145 4 c8 -26 -11 -60
-35 -60 -29 0 -39 49 -15 67 26 18 43 16 50 -7z m135 -15 c0 -12 -7 -28 -15
-35 -29 -24 -62 29 -34 57 17 17 49 3 49 -22z m278 10 c4 -28 -21 -60 -42 -52
-19 7 -21 48 -4 65 18 18 42 10 46 -13z m410 -8 c2 -18 -3 -29 -18 -37 -39
-21 -55 16 -23 52 21 24 37 18 41 -15z m136 27 c37 -14 5 -80 -31 -67 -16 6
-17 45 -1 61 14 14 12 14 32 6z m-1534 -19 c17 -20 5 -45 -20 -45 -23 0 -35
22 -26 45 7 19 30 19 46 0z m142 -2 c8 -29 -2 -43 -28 -43 -20 0 -24 5 -24 30
0 25 4 30 24 30 14 0 25 -7 28 -17z m708 -1 c0 -10 -5 -23 -12 -30 -21 -21
-48 -14 -48 11 0 13 3 27 7 30 3 4 17 7 30 7 15 0 23 -6 23 -18z m277 2 c8
-22 -9 -48 -36 -52 -18 -3 -21 1 -21 32 0 32 3 36 25 36 15 0 28 -7 32 -16z
m131 -17 c3 -21 -1 -27 -17 -27 -25 0 -34 14 -26 41 10 29 39 20 43 -14z
m-1410 -13 c-17 -18 -38 -11 -38 11 0 16 31 25 45 13 5 -5 3 -14 -7 -24z
m1827 10 c0 -10 -8 -20 -17 -22 -18 -3 -26 27 -11 42 12 11 28 0 28 -20z
m-142 -100 c24 -9 22 -51 -4 -65 -24 -12 -36 -4 -39 26 -4 40 0 57 13 51 6 -3
20 -9 30 -12z m-1958 -5 c13 -19 -4 -59 -25 -59 -15 0 -20 7 -20 29 0 34 30
55 45 30z m153 -11 c4 -20 -34 -61 -51 -55 -19 6 -20 43 -1 61 20 20 48 17 52
-6z m410 -20 c2 -17 -3 -28 -14 -32 -23 -9 -46 13 -39 35 4 12 1 19 -7 19 -10
0 -10 2 1 9 22 14 56 -3 59 -31z m152 18 c0 -44 -51 -75 -64 -40 -11 29 -6 45
17 54 36 14 47 11 47 -14z m561 -13 c-9 -36 -34 -51 -55 -34 -27 23 -19 49 17
59 41 12 47 8 38 -25z m158 21 c9 -9 -37 -59 -58 -62 -18 -3 -21 1 -21 31 0
20 6 38 13 41 12 5 58 -2 66 -10z m399 -7 c5 -23 -25 -57 -50 -57 -13 0 -18 7
-18 30 0 45 60 69 68 27z m276 1 c18 -25 6 -48 -25 -48 -15 0 -19 7 -19 35 0
41 20 47 44 13z m144 -11 c2 -18 -2 -29 -13 -33 -24 -9 -39 10 -31 41 9 35 40
30 44 -8z m-1954 14 c8 -12 -32 -61 -49 -61 -21 0 -35 31 -24 52 10 19 63 25
73 9z m132 -5 c7 -20 -13 -56 -32 -56 -16 0 -38 46 -28 61 8 14 54 11 60 -5z
m444 4 c0 -19 -50 -61 -68 -58 -21 4 -28 34 -12 53 14 17 80 20 80 5z m119 1
c24 -15 -2 -61 -33 -61 -30 0 -40 14 -32 46 7 25 37 32 65 15z m136 -21 c0
-21 -5 -25 -30 -25 -33 0 -48 30 -23 46 25 17 53 6 53 -21z m426 14 c11 -14
10 -19 -10 -35 -13 -11 -27 -19 -32 -19 -11 0 -23 46 -14 59 9 16 41 13 56 -5z
m127 -11 c3 -20 -1 -23 -27 -23 -23 0 -31 5 -31 18 0 25 10 33 35 30 12 -2 21
-12 23 -25z m410 -109 c31 -22 26 -59 -8 -59 -22 0 -25 5 -28 38 -4 41 3 45
36 21z m162 -6 c6 -18 4 -27 -12 -40 -40 -35 -57 -18 -42 40 4 13 14 22 25 22
11 0 24 -10 29 -22z m-2550 -23 c0 -28 -12 -38 -34 -29 -21 8 -20 41 1 53 23
12 33 5 33 -24z m148 3 c2 -19 -2 -28 -17 -33 -26 -8 -41 1 -41 24 0 44 53 53
58 9z m150 1 c2 -15 -4 -31 -13 -39 -24 -20 -50 9 -41 45 9 36 50 32 54 -6z
m136 18 c28 -21 12 -59 -22 -55 -27 3 -39 26 -28 54 7 18 27 18 50 1z m270 7
c19 -7 21 -50 4 -57 -20 -7 -48 12 -48 32 0 29 13 37 44 25z m162 -8 c3 -8 0
-24 -6 -36 -14 -26 -53 -23 -58 4 -7 34 52 63 64 32z m134 4 c11 -7 12 -15 4
-37 -12 -35 -47 -39 -52 -5 -7 46 14 64 48 42z m141 0 c28 -15 24 -48 -6 -56
-49 -12 -72 17 -39 50 18 19 20 19 45 6z m289 -25 c0 -18 -7 -26 -26 -31 -49
-12 -59 37 -12 55 29 11 38 6 38 -24z m279 13 c12 -32 3 -48 -24 -48 -29 0
-39 14 -31 46 8 31 44 32 55 2z m135 0 c14 -22 -12 -52 -37 -42 -17 6 -23 44
-10 58 11 11 35 3 47 -16z m144 -5 c2 -14 -4 -26 -18 -33 -42 -23 -67 11 -34
45 22 21 48 15 52 -12z m130 21 c44 -12 17 -69 -30 -62 -26 3 -35 32 -18 53
14 17 16 17 48 9z m145 -15 c15 -24 1 -49 -28 -49 -22 0 -25 4 -25 36 0 31 3
35 21 32 12 -2 27 -10 32 -19z m-1675 -11 c2 -9 -8 -24 -23 -34 -23 -15 -28
-15 -36 -3 -5 8 -9 24 -9 37 0 20 4 23 32 20 21 -2 34 -9 36 -20z m697 -8 c0
-31 -33 -40 -52 -14 -23 31 -16 46 20 42 27 -2 32 -7 32 -28z m299 22 c3 -5
-2 -19 -10 -31 -22 -31 -58 -25 -62 12 -3 25 -1 27 32 27 19 0 37 -4 40 -8z
m1847 -86 c261 -216 527 -573 729 -976 142 -283 222 -550 272 -900 17 -123 17
-542 -1 -670 -15 -117 -47 -280 -66 -340 -7 -25 -28 -97 -45 -160 -71 -256
-201 -529 -380 -797 -239 -359 -501 -625 -845 -862 -49 -34 -100 -73 -111 -86
-19 -21 -26 -22 -60 -14 -22 4 -90 9 -153 9 -137 0 -136 5 9 79 239 120 546
350 701 523 245 275 402 507 546 805 113 234 211 562 255 850 25 164 29 427 9
603 -17 153 -84 447 -133 590 -108 308 -286 629 -506 911 -101 129 -282 323
-337 360 -19 13 -35 31 -35 39 0 20 58 90 74 90 7 0 41 -24 77 -54z m-615 -25
l24 -19 -40 -49 c-42 -49 -278 -274 -500 -477 -69 -63 -219 -209 -334 -324
l-209 -210 12 -49 c30 -126 -56 -275 -202 -348 -118 -58 -127 -20 -23 94 44
48 81 99 91 126 17 42 17 46 1 71 -19 27 -87 63 -122 64 -12 0 -52 -23 -90
-51 -89 -65 -119 -81 -152 -77 -51 6 -40 39 38 122 100 105 149 136 217 136
34 0 68 -7 93 -20 22 -11 46 -20 55 -20 8 0 124 109 257 242 134 133 275 271
313 306 39 36 153 145 255 242 249 237 274 259 283 260 5 0 20 -9 33 -19z
m-1105 -33 c13 -25 -6 -50 -35 -46 -15 2 -22 12 -24 32 -6 47 36 57 59 14z
m142 -7 c-7 -26 -39 -55 -52 -46 -18 10 -13 63 6 74 25 13 53 -4 46 -28z m401
23 c22 -21 20 -41 -4 -54 -27 -14 -40 -5 -40 29 0 43 17 53 44 25z m140 10
c21 -8 21 -48 0 -69 -21 -21 -36 -15 -47 20 -8 23 -6 31 9 42 21 15 18 15 38
7z m-2550 -10 c19 -7 21 -50 4 -57 -18 -6 -48 11 -48 26 0 7 5 18 12 25 14 14
12 14 32 6z m164 -20 c4 -25 -22 -49 -43 -40 -15 5 -21 47 -8 60 14 14 48 1
51 -20z m150 3 c5 -23 -15 -47 -39 -47 -23 0 -35 36 -18 56 16 20 53 14 57 -9z
m142 -11 c0 -21 -17 -46 -31 -46 -14 0 -39 32 -39 50 0 13 9 20 28 22 36 5 42
1 42 -26z m130 15 c21 -17 22 -21 10 -36 -26 -31 -82 0 -67 39 8 21 26 20 57
-3z m146 5 c15 -12 17 -18 8 -33 -17 -27 -41 -27 -59 1 -27 42 8 63 51 32z
m151 -2 c8 -21 -30 -59 -51 -51 -16 6 -22 48 -9 60 12 13 54 7 60 -9z m143 -5
c0 -29 -18 -59 -36 -59 -8 0 -20 11 -26 25 -10 21 -8 28 8 40 28 21 54 19 54
-6z m269 12 c23 -15 5 -61 -23 -61 -24 0 -36 17 -36 51 0 20 33 26 59 10z
m151 -10 c0 -34 -12 -51 -35 -51 -28 0 -43 34 -25 55 19 22 60 19 60 -4z m150
-4 c0 -44 -49 -65 -69 -30 -13 23 13 53 46 53 17 0 23 -6 23 -23z m560 14 c0
-26 -21 -61 -38 -61 -41 0 -56 45 -19 60 29 12 57 12 57 1z m125 -5 c27 -19
13 -46 -24 -46 -31 0 -52 23 -44 48 6 16 44 15 68 -2z m415 1 c0 -7 -5 -18
-12 -25 -18 -18 -38 -15 -38 6 0 10 3 22 7 25 11 12 43 7 43 -6z m-1520 -1 c0
-3 -4 -16 -10 -30 -7 -18 -17 -26 -34 -26 -30 0 -40 13 -31 40 5 15 15 20 41
20 19 0 34 -2 34 -4z m560 -15 c0 -27 -26 -44 -55 -37 -18 5 -25 13 -25 31 0
22 4 25 40 25 32 0 40 -4 40 -19z m-442 -117 c21 -14 21 -17 7 -45 -11 -20
-23 -29 -40 -29 -22 0 -25 4 -25 38 0 56 16 66 58 36z m2190 -11 c4 -24 -22
-47 -43 -39 -20 7 -19 30 1 51 20 20 38 15 42 -12z m-3603 7 c10 -16 -23 -60
-44 -60 -27 0 -35 29 -15 51 19 21 49 25 59 9z m141 -4 c8 -21 -14 -56 -36
-56 -25 0 -33 15 -26 46 5 17 13 24 32 24 13 0 27 -6 30 -14z m144 -2 c11 -13
9 -19 -13 -42 -25 -25 -28 -25 -44 -10 -14 14 -15 22 -5 43 13 28 43 33 62 9z
m138 3 c6 -7 9 -23 5 -36 -4 -17 -12 -21 -32 -19 -29 3 -40 31 -21 53 15 18
34 19 48 2z m148 -1 c9 -24 -15 -58 -39 -54 -17 2 -23 11 -25 36 -3 30 -1 32
28 32 17 0 33 -6 36 -14z m151 -2 c7 -20 -42 -68 -60 -61 -17 6 -24 57 -10 71
11 11 66 3 70 -10z m133 1 c10 -12 9 -20 -4 -40 -30 -46 -78 -19 -61 35 8 24
47 27 65 5z m145 -19 c0 -36 -26 -56 -49 -37 -31 26 -11 75 29 69 15 -2 20
-11 20 -32z m143 -9 c-2 -17 -10 -22 -33 -22 -35 0 -47 31 -20 51 25 18 57 0
53 -29z m139 27 c9 -24 -10 -49 -38 -49 -24 0 -36 23 -25 51 7 19 55 18 63 -2z
m288 -4 c8 -25 -11 -60 -33 -60 -22 0 -42 19 -42 40 0 39 63 57 75 20z m140
-15 c0 -27 -3 -30 -30 -30 -24 0 -31 5 -33 24 -4 27 13 42 43 39 15 -2 20 -11
20 -33z m140 15 c9 -29 -2 -40 -41 -40 -29 0 -34 3 -34 23 0 31 7 37 41 37 19
0 30 -6 34 -20z m142 5 c8 -21 -26 -57 -51 -53 -24 4 -33 33 -16 53 16 20 59
19 67 0z m141 -8 c5 -23 -25 -57 -50 -57 -19 0 -25 31 -12 65 9 22 58 16 62
-8z m277 13 c13 -20 -6 -49 -36 -55 -41 -9 -56 6 -41 40 9 18 19 25 41 25 16
0 33 -5 36 -10z m135 -5 c9 -11 7 -19 -14 -40 -14 -14 -31 -23 -36 -20 -11 7
-14 58 -3 68 11 12 40 8 53 -8z m918 -21 c-4 -21 -35 -31 -50 -16 -7 7 -3 17
12 32 24 24 44 16 38 -16z m-1198 8 c0 -38 -46 -56 -70 -27 -18 21 4 45 41 45
21 0 29 -5 29 -18z m410 12 c0 -3 -5 -14 -10 -25 -18 -33 -59 -18 -46 16 5 14
56 22 56 9z m510 -23 c0 -10 -7 -24 -16 -31 -12 -11 -18 -10 -31 3 -21 21 -9
47 22 47 18 0 25 -5 25 -19z m140 -6 c0 -9 -9 -15 -25 -15 -16 0 -25 6 -25 15
0 9 9 15 25 15 16 0 25 -6 25 -15z m-3032 -124 c6 -15 -32 -51 -54 -51 -10 0
-14 14 -14 51 l0 50 31 -18 c17 -10 34 -24 37 -32z m-288 25 c0 -52 -41 -89
-69 -62 -20 20 -1 63 31 69 13 2 26 5 31 6 4 0 7 -5 7 -13z m404 1 c28 -20 18
-61 -16 -65 -22 -3 -29 2 -34 22 -12 50 12 71 50 43z m160 -19 c-9 -54 -13
-60 -36 -56 -17 2 -24 11 -26 31 -5 43 4 57 37 57 29 0 30 -2 25 -32z m141
-28 c-20 -38 -58 -39 -63 -2 -5 30 13 50 46 54 33 4 38 -11 17 -52z m143 43
c27 -6 28 -13 1 -47 -28 -36 -63 -32 -67 7 -5 41 5 61 26 52 9 -4 27 -10 40
-12z m127 5 c32 -14 34 -53 3 -69 -18 -10 -24 -8 -35 7 -14 19 -17 56 -6 67 8
9 8 9 38 -5z m155 -28 c0 -35 -3 -40 -23 -40 -29 0 -47 18 -47 45 0 29 8 35
42 35 26 0 28 -3 28 -40z m160 35 c0 -2 -7 -23 -16 -45 -18 -44 -46 -53 -64
-21 -13 25 -5 46 23 59 23 11 57 15 57 7z m408 -26 c2 -14 -4 -31 -12 -38 -22
-18 -56 -4 -56 23 0 49 62 64 68 15z m151 -1 c-11 -41 -22 -50 -50 -46 -17 2
-25 11 -27 27 -5 30 20 51 59 51 26 0 27 -2 18 -32z m149 17 c2 -2 2 -15 -2
-28 -8 -32 -63 -57 -77 -36 -13 20 -11 53 4 68 11 11 63 9 75 -4z m233 5 c27
-15 27 -70 0 -70 -47 0 -69 38 -39 68 15 15 15 15 39 2z m294 -1 c8 -12 -32
-59 -51 -59 -13 0 -8 36 9 58 12 15 34 16 42 1z m-2675 -22 c0 -28 -17 -47
-42 -47 -13 0 -18 8 -18 28 0 35 6 42 37 42 17 0 23 -6 23 -23z m310 11 c0
-16 -53 -68 -70 -68 -21 0 -34 31 -25 59 4 15 15 18 50 17 25 0 45 -4 45 -8z
m1280 -6 c0 -8 -14 -27 -30 -44 -25 -25 -33 -28 -45 -18 -8 7 -15 28 -15 47
l0 34 45 -3 c29 -2 45 -8 45 -16z m128 3 c3 -3 1 -18 -4 -33 -18 -51 -74 -36
-74 21 0 29 1 29 36 24 20 -3 39 -9 42 -12z m547 -20 c0 -25 -4 -31 -26 -33
-22 -3 -27 2 -32 25 -7 37 -1 45 31 41 23 -2 27 -8 27 -33z m290 8 c-3 -16 -9
-31 -13 -35 -4 -4 -19 -10 -34 -13 -26 -7 -28 -5 -28 27 0 19 3 38 7 41 3 4
22 7 41 7 32 0 34 -2 27 -27z m780 0 c-9 -39 -25 -54 -49 -51 -13 2 -22 12
-24 26 -6 39 5 52 44 52 34 0 36 -1 29 -27z m131 3 c8 -32 -2 -46 -32 -46 -21
0 -24 5 -24 35 0 31 3 35 25 35 18 0 26 -7 31 -24z m134 -11 c0 -30 -3 -35
-24 -35 -17 0 -26 7 -30 25 -8 33 -1 45 30 45 21 0 24 -5 24 -35z m160 11 c0
-44 -51 -61 -66 -21 -11 27 4 45 36 45 25 0 30 -4 30 -24z m-570 -1 c0 -17
-35 -55 -50 -55 -23 0 -23 33 -1 52 28 22 51 23 51 3z m698 -12 c-4 -36 -41
-44 -58 -13 -15 27 -5 40 31 40 27 0 30 -3 27 -27z m-2757 -93 c25 -14 25 -50
0 -50 -32 0 -51 11 -51 29 0 32 17 38 51 21z m1124 -6 c17 -18 17 -45 -1 -51
-19 -6 -58 32 -51 50 8 21 31 22 52 1z m-1966 -10 c2 -2 1 -10 -2 -19 -4 -9
-19 -15 -37 -15 -25 0 -30 4 -30 25 0 22 3 24 33 18 17 -3 34 -7 36 -9z m131
-9 c0 -20 -5 -25 -24 -25 -24 0 -41 23 -30 41 3 5 16 9 30 9 19 0 24 -5 24
-25z m150 0 c0 -20 -5 -25 -24 -25 -14 0 -28 5 -31 10 -12 19 4 40 30 40 20 0
25 -5 25 -25z m146 10 c8 -20 -13 -45 -37 -45 -14 0 -19 7 -19 30 0 25 4 30
25 30 14 0 28 -7 31 -15z m138 -20 c-7 -16 -39 -29 -53 -20 -11 6 -3 36 13 47
15 10 46 -10 40 -27z m154 20 c1 -1 -6 -13 -17 -26 -16 -20 -23 -22 -38 -13
-10 6 -19 21 -21 33 -3 21 -1 22 35 15 21 -4 39 -8 41 -9z m280 -12 c3 -20 -1
-23 -32 -23 -29 0 -36 4 -36 19 0 37 63 40 68 4z m289 10 c6 -16 -43 -47 -62
-39 -8 3 -15 16 -15 30 0 21 4 24 37 23 20 -1 38 -7 40 -14z m131 -11 c3 -21
0 -23 -30 -20 -26 2 -34 8 -36 26 -3 21 0 23 30 20 26 -2 34 -8 36 -26z m140
1 c-2 -24 -8 -28 -33 -28 -21 0 -31 5 -33 19 -5 22 13 36 46 36 20 0 23 -4 20
-27z m140 0 c3 -20 -1 -23 -27 -23 -23 0 -31 5 -31 18 0 25 10 33 35 30 12 -2
21 -12 23 -25z m126 21 c22 -9 21 -44 -2 -44 -21 0 -42 18 -42 37 0 14 18 17
44 7z m1076 -19 c0 -14 -22 -25 -51 -25 -21 0 -27 36 -7 42 21 7 58 -4 58 -17z
m124 19 c23 -9 19 -33 -6 -43 -32 -12 -48 -3 -48 25 0 25 20 31 54 18z m154
-9 c2 -2 2 -11 -2 -20 -10 -27 -60 -15 -64 14 -4 22 -1 23 29 17 18 -3 35 -8
37 -11z m144 9 c3 -3 4 -14 1 -25 -4 -13 -14 -19 -34 -19 -33 0 -51 26 -28 41
16 10 53 12 61 3z m286 -32 c3 -31 2 -33 -25 -30 -17 2 -29 10 -31 21 -6 30 6
49 30 45 18 -2 24 -11 26 -36z m-4060 7 c4 -19 -23 -49 -44 -49 -23 0 -28 29
-8 51 20 23 47 21 52 -2z m160 2 c-8 -37 -68 -39 -68 -2 0 16 6 19 35 18 24
-1 35 -6 33 -16z m1432 0 c0 -11 -9 -21 -22 -25 -35 -9 -38 -8 -38 19 0 21 5
25 30 25 23 0 30 -5 30 -19z m980 13 c0 -18 -24 -44 -40 -44 -15 0 -20 7 -20
25 0 21 5 25 30 25 17 0 30 -3 30 -6z m114 -9 c-4 -8 -12 -15 -20 -15 -8 0
-14 7 -14 15 0 8 9 15 20 15 13 0 18 -5 14 -15z m506 1 c0 -19 -26 -38 -47
-34 -16 3 -16 5 5 26 25 25 42 28 42 8z m714 8 c9 -3 16 -13 16 -21 0 -21 -54
-13 -58 10 -4 18 13 22 42 11z m-3622 -20 c-5 -10 -23 -7 -37 7 -6 6 -1 8 15
6 14 -2 23 -8 22 -13z m2751 -249 c8 -88 0 -2375 -8 -2383 -2 -2 -656 -4
-1454 -4 -1138 0 -1457 3 -1488 12 -77 26 -149 87 -190 163 -17 30 -18 98 -21
1039 -2 985 -2 1007 18 1060 39 105 128 175 234 184 50 4 2386 11 2386 7 0 -1
-24 -23 -52 -49 -29 -26 -90 -86 -135 -132 l-82 -85 -31 13 c-40 16 -140 16
-183 0 -18 -7 -56 -29 -86 -49 l-53 -36 -722 -5 -721 -5 -55 -27 c-75 -37
-139 -93 -161 -142 -16 -38 -17 -80 -13 -686 3 -406 9 -661 16 -687 14 -57 67
-116 133 -149 86 -42 212 -46 1145 -41 763 4 838 5 868 21 53 28 112 86 140
140 l26 51 2 685 c1 553 -2 690 -13 712 -7 15 -13 32 -13 39 0 27 352 365 450
432 45 31 54 20 63 -78z m942 64 c82 -23 160 -100 195 -194 13 -33 16 -2000 4
-2052 -21 -88 -85 -156 -171 -183 -61 -19 -93 -20 -460 -20 l-395 0 2 1193 c1
655 4 1210 7 1232 l5 40 386 -3 c243 -1 402 -6 427 -13z m-4265 -198 c0 -5 3
-23 6 -40 6 -30 5 -31 -29 -31 -20 0 -39 4 -42 10 -7 11 12 51 29 62 15 10 36
10 36 -1z m4638 -3 c20 -20 15 -66 -9 -73 -28 -9 -31 -4 -23 44 7 43 13 48 32
29z m130 -201 c-2 -12 -9 -22 -17 -22 -19 0 -36 29 -28 49 10 26 49 2 45 -27z
m-138 23 c0 -5 -2 -10 -4 -10 -3 0 -8 5 -11 10 -3 6 -1 10 4 10 6 0 11 -4 11
-10z m-2850 -60 c0 -6 -55 -71 -122 -146 -68 -75 -154 -170 -192 -212 -38 -43
-98 -108 -135 -147 -37 -38 -140 -149 -230 -245 -90 -96 -180 -190 -200 -209
-20 -19 -89 -86 -153 -149 l-118 -114 0 76 0 76 101 97 c107 104 614 639 717
758 33 39 87 93 120 120 34 28 66 62 72 78 12 25 16 27 76 27 36 0 64 -4 64
-10z m-490 -11 c-25 -5 -53 -6 -62 -3 -10 3 -22 3 -27 -1 -16 -9 -1 -35 20
-35 10 0 19 -4 19 -9 0 -13 -81 -21 -234 -22 -155 0 -265 -16 -259 -36 3 -7 0
-13 -6 -13 -6 0 -11 6 -11 14 0 8 -9 17 -19 21 -12 4 -18 12 -14 21 8 20 -3
17 -26 -8 -17 -17 -18 -24 -8 -37 10 -14 10 -14 -5 -3 -10 8 -19 9 -22 3 -3
-5 -1 -11 5 -13 6 -2 5 -14 -5 -33 l-16 -30 0 35 c0 55 41 105 115 140 37 18
63 19 320 19 191 -1 266 -4 235 -10z m-1305 -74 c0 -26 -3 -30 -24 -27 -32 3
-35 7 -26 29 5 10 7 22 6 26 -1 5 9 7 21 5 18 -2 23 -9 23 -33z m2010 -7 c-14
-24 -27 -69 -31 -102 -6 -50 -13 -66 -54 -115 -67 -80 -420 -451 -788 -828
l-314 -323 -29 29 c-16 16 -29 37 -29 46 0 9 57 76 128 148 130 136 578 609
711 752 65 70 423 433 428 434 1 1 -9 -18 -22 -41z m-2147 5 c-2 -22 -9 -29
-30 -31 -32 -4 -38 17 -12 42 25 26 46 20 42 -11z m4792 2 c0 -16 -6 -25 -15
-25 -15 0 -21 31 -8 43 13 14 23 6 23 -18z m146 3 c7 -24 -19 -51 -46 -46 -16
4 -25 31 -16 54 9 23 54 17 62 -8z m-4079 -54 c-3 -3 -12 -4 -19 -1 -8 3 -5 6
6 6 11 1 17 -2 13 -5z m-732 -105 c0 -17 -6 -25 -23 -27 -30 -5 -42 26 -17 45
26 18 40 12 40 -18z m4670 21 c4 -6 -1 -22 -10 -37 -20 -31 -39 -18 -29 21 6
26 27 35 39 16z m135 -14 c0 -33 -25 -53 -45 -36 -18 15 -19 32 -3 48 21 21
48 14 48 -12z m140 9 c17 -20 5 -45 -20 -45 -24 0 -44 41 -26 52 17 12 32 9
46 -7z m-5068 -1 c3 -3 4 -14 1 -24 -4 -15 -9 -17 -30 -9 -14 5 -29 7 -34 3
-13 -8 -11 10 3 24 12 12 50 16 60 6z m22 -151 c9 -23 -6 -35 -40 -31 -21 2
-30 9 -32 26 -3 19 1 22 31 22 23 0 37 -6 41 -17z m111 -7 c0 -25 -16 -30 -39
-13 -24 17 -12 39 17 35 14 -2 22 -10 22 -22z m4653 2 c-4 -29 -38 -38 -38
-10 0 22 8 32 27 32 9 0 13 -8 11 -22z m142 3 c0 -29 -25 -45 -49 -31 -24 12
-26 21 -9 38 19 19 58 15 58 -7z m148 -3 c-3 -25 -43 -37 -60 -20 -19 19 0 42
32 42 27 0 31 -3 28 -22z m-5191 -4 c5 -14 -22 -25 -41 -18 -8 3 -12 12 -9 20
6 17 44 15 50 -2z m-1 -124 c1 -26 -16 -50 -36 -50 -26 0 -32 13 -20 45 7 20
16 26 33 23 12 -2 22 -10 23 -18z m142 -3 c5 -26 -16 -47 -49 -47 -24 0 -29 4
-29 23 0 13 6 29 12 35 18 18 62 11 66 -11z m4883 13 c12 -7 19 -21 19 -41 0
-27 -3 -30 -27 -27 -20 2 -29 10 -34 32 -12 45 2 57 42 36z m-4757 -16 c9 -22
-11 -44 -39 -44 -25 0 -34 15 -27 43 6 22 57 23 66 1z m4641 -14 c0 -18 -6
-26 -22 -28 -20 -3 -23 1 -23 28 0 27 3 31 23 28 16 -2 22 -10 22 -28z m281 4
c7 -26 -6 -43 -32 -44 -19 0 -33 25 -27 48 8 33 51 30 59 -4z m-3082 -96 c3
-13 6 -32 6 -43 0 -11 5 -36 10 -56 l10 -36 53 5 52 5 -32 -31 c-33 -30 -42
-56 -23 -67 6 -3 10 -13 10 -21 0 -10 -7 -13 -24 -8 -17 4 -30 -1 -44 -16 -14
-15 -26 -19 -44 -15 -18 5 -27 2 -31 -9 -9 -23 -34 -20 -40 5 -3 12 -10 18
-15 15 -18 -11 -29 19 -36 97 l-7 79 43 -4 43 -3 25 62 c14 35 28 63 31 63 4
0 9 -10 13 -22z m2806 -63 c0 -20 -5 -25 -25 -25 -21 0 -25 5 -25 28 0 16 3
32 6 35 13 13 44 -14 44 -38z m-4922 3 c-4 -41 -40 -52 -58 -18 -17 31 -5 50
30 50 29 0 31 -2 28 -32z m146 16 c14 -38 -33 -71 -62 -42 -19 19 -14 38 11
48 33 13 44 12 51 -6z m121 -14 c0 -16 -6 -26 -19 -28 -25 -5 -39 12 -31 38
10 31 50 24 50 -10z m4783 3 c-2 -22 -9 -29 -31 -31 -18 -2 -29 2 -33 12 -11
28 4 46 36 46 28 0 31 -3 28 -27z m152 18 c0 -27 -21 -61 -39 -61 -23 0 -31
18 -20 48 6 15 17 22 34 22 14 0 25 -4 25 -9z m110 -27 c0 -13 -2 -24 -4 -24
-2 0 -11 -3 -20 -6 -12 -5 -16 0 -16 18 0 26 18 50 32 42 4 -3 8 -16 8 -30z
m-5172 -129 c5 -24 -12 -38 -37 -30 -20 6 -30 43 -15 58 11 10 49 -10 52 -28z
m130 -3 c3 -18 -1 -22 -26 -22 -24 0 -31 5 -34 25 -6 31 -3 35 30 26 17 -5 28
-15 30 -29z m4648 11 c-3 -8 -6 -19 -6 -24 0 -5 -6 -9 -14 -9 -19 0 -29 29
-15 46 14 16 42 6 35 -13z m132 -9 c-2 -12 -13 -20 -31 -22 -22 -3 -27 1 -27
18 0 12 9 24 23 29 26 10 40 0 35 -25z m275 24 c7 -20 -11 -58 -28 -58 -15 0
-22 50 -8 63 11 11 30 8 36 -5z m-5323 -24 c0 -8 -7 -14 -15 -14 -15 0 -21 21
-9 33 10 9 24 -2 24 -19z m5196 11 c8 -20 -13 -45 -37 -45 -13 0 -19 7 -19 23
0 13 3 27 7 30 12 13 44 7 49 -8z m678 -17 c13 -19 16 -58 16 -228 0 -170 -3
-209 -16 -228 -19 -27 -38 -28 -64 -2 -19 19 -20 33 -20 208 0 103 4 203 10
221 15 54 48 67 74 29z m-6462 -10 c9 -17 12 -79 10 -228 -2 -195 -3 -206 -23
-222 -29 -24 -46 -22 -65 7 -13 20 -16 57 -16 225 0 110 3 209 7 220 9 30 70
28 87 -2z m-242 -7 c6 -12 10 -101 10 -220 0 -187 -1 -201 -19 -211 -15 -7
-24 -5 -41 8 -21 17 -21 25 -21 202 0 105 4 197 10 213 12 32 45 36 61 8z
m6940 0 c5 -11 10 -46 10 -79 0 -84 9 -124 27 -118 8 4 59 9 113 12 l99 7 13
-27 c22 -50 4 -61 -103 -61 -52 0 -104 4 -116 8 -22 8 -23 7 -23 -62 0 -94
-12 -123 -47 -119 -47 5 -53 33 -53 244 0 135 3 193 12 202 18 18 56 14 68 -7z
m-1052 -104 c8 -40 -43 -63 -69 -31 -11 14 -10 19 10 36 28 22 54 20 59 -5z
m-4903 -12 c0 -26 -37 -32 -55 -10 -12 14 -11 18 1 26 23 15 54 6 54 -16z
m110 0 c0 -30 -39 -27 -43 3 -3 20 0 23 20 20 15 -2 23 -10 23 -23z m4653 3
c2 -9 -5 -24 -15 -34 -17 -17 -18 -17 -21 5 -2 12 -1 29 2 38 7 18 30 12 34
-9z m282 3 c0 -10 -7 -24 -16 -32 -20 -16 -48 -1 -52 30 -3 18 1 21 32 21 29
0 36 -4 36 -19z m128 -9 c4 -27 -22 -40 -43 -22 -8 7 -15 21 -15 32 0 30 54
21 58 -10z m-5308 4 c0 -20 -14 -28 -36 -19 -16 6 -16 7 2 20 23 17 34 17 34
-1z m-130 -22 c0 -8 -4 -12 -10 -9 -5 3 -10 13 -10 21 0 8 5 12 10 9 6 -3 10
-13 10 -21z m-861 -78 c17 -37 8 -43 -85 -51 -95 -9 -114 -3 -114 39 0 18 3
36 7 40 4 4 45 5 92 4 83 -3 86 -4 100 -32z m6156 -42 c0 -24 -4 -29 -25 -29
-31 0 -40 33 -14 52 26 19 39 11 39 -23z m153 -7 c2 -9 -9 -19 -28 -25 -37
-13 -49 4 -31 45 11 23 13 24 34 10 12 -8 23 -21 25 -30z m-5178 3 c0 -25 -4
-30 -24 -30 -30 0 -40 13 -31 40 4 13 15 20 31 20 20 0 24 -5 24 -30z m115 -1
c0 -27 -29 -38 -38 -14 -9 22 2 43 21 41 11 -2 17 -12 17 -27z m4775 2 c0 -34
-12 -45 -40 -36 -22 7 -28 50 -7 58 33 14 47 7 47 -22z m-5150 -18 c0 -7 -7
-13 -15 -13 -15 0 -21 31 -8 43 8 8 23 -12 23 -30z m5015 11 c0 -10 -8 -20
-17 -22 -18 -3 -26 27 -11 42 12 11 28 0 28 -20z m-4890 -4 c0 -8 -10 -16 -22
-18 -25 -4 -26 -2 -17 23 8 19 39 16 39 -5z m120 -90 c10 -17 -5 -70 -21 -70
-10 0 -14 12 -14 40 0 28 4 40 14 40 8 0 18 -5 21 -10z m-125 -34 c0 -36 -24
-56 -34 -30 -13 34 -6 64 14 64 16 0 20 -7 20 -34z m5173 28 c10 -10 -22 -64
-38 -64 -19 0 -21 56 -2 63 18 8 33 8 40 1z m137 -34 c0 -17 -7 -30 -17 -34
-32 -13 -46 46 -16 63 24 13 33 5 33 -29z m-305 20 c-3 -5 -13 -10 -21 -10 -8
0 -14 5 -14 10 0 6 9 10 21 10 11 0 17 -4 14 -10z m-4752 -46 c-8 -20 -22 -17
-20 5 0 10 7 17 13 14 7 -3 10 -11 7 -19z m-115 -96 c4 -34 -12 -36 -48 -8
-21 17 -23 21 -10 30 27 18 55 7 58 -22z m4882 2 c0 -31 -17 -39 -38 -18 -24
24 -13 40 31 47 4 0 7 -12 7 -29z m285 9 c4 -12 2 -26 -3 -31 -17 -17 -42 -1
-42 27 0 32 35 35 45 4z m-5045 -13 c0 -33 -16 -42 -29 -17 -16 29 -13 41 9
41 15 0 20 -7 20 -24z m4910 -1 c0 -27 -26 -35 -48 -13 -21 21 -13 38 18 38
25 0 30 -4 30 -25z m-5175 5 c-3 -5 -13 -10 -21 -10 -8 0 -14 5 -14 10 0 6 9
10 21 10 11 0 17 -4 14 -10z m-2 -106 c11 -4 13 -13 8 -32 -10 -36 -54 -39
-59 -3 -5 32 19 48 51 35z m136 -26 c11 -28 6 -38 -20 -38 -19 0 -24 15 -13
44 9 23 23 20 33 -6z m4769 -11 c3 -23 0 -27 -22 -27 -21 0 -26 5 -26 23 0 13
3 27 7 31 15 14 38 0 41 -27z m270 6 c-3 -29 -32 -43 -50 -25 -18 18 1 52 28
52 22 0 25 -4 22 -27z m-4918 -8 c0 -14 -4 -25 -10 -25 -5 0 -10 11 -10 25 0
14 5 25 10 25 6 0 10 -11 10 -25z m4780 -1 c0 -22 -4 -25 -27 -22 -20 2 -29 9
-31 26 -3 19 1 22 27 22 27 0 31 -4 31 -26z m236 7 c-3 -4 1 -8 9 -8 8 0 13 4
12 8 -1 4 3 7 8 8 17 2 11 -21 -8 -33 -14 -8 -20 -8 -27 4 -13 20 -13 43 0 35
6 -4 8 -10 6 -14z m-5288 -133 c-2 -21 -8 -33 -18 -33 -19 0 -26 45 -8 56 23
15 29 10 26 -23z m156 10 c16 -26 -16 -57 -38 -38 -9 7 -16 23 -16 37 0 19 4
24 21 21 12 -2 27 -11 33 -20z m126 -8 c0 -33 -19 -40 -40 -15 -16 20 -5 45
20 45 16 0 20 -7 20 -30z m4640 11 c0 -15 -31 -42 -41 -36 -5 4 -9 15 -9 26 0
14 7 19 25 19 14 0 25 -4 25 -9z m128 -13 c-4 -31 -58 -40 -58 -10 0 25 8 32
37 32 20 0 24 -5 21 -22z m152 10 c-1 -20 -26 -48 -43 -48 -18 0 -29 24 -21
45 7 18 64 21 64 3z m-145 -130 c-12 -38 -31 -54 -49 -38 -9 7 -16 17 -16 23
0 14 32 36 53 37 14 0 17 -5 12 -22z m142 6 c9 -24 -23 -51 -45 -38 -24 15
-27 41 -5 47 34 9 44 7 50 -9z m-5197 -13 c0 -26 -17 -36 -35 -21 -23 19 -18
40 10 40 18 0 25 -5 25 -19z m144 4 c3 -9 -1 -18 -9 -21 -23 -9 -50 0 -53 19
-3 13 3 17 26 17 18 0 32 -6 36 -15z m124 -12 c4 -29 -23 -31 -38 -4 -15 28
-13 33 13 29 14 -2 23 -11 25 -25z m4652 14 c0 -8 -9 -22 -20 -32 -19 -18 -20
-17 -20 7 0 13 3 28 7 31 11 12 33 8 33 -6z m269 -136 c12 -24 2 -41 -25 -41
-29 0 -40 21 -25 49 12 22 36 19 50 -8z m-5051 7 c15 -15 -3 -48 -27 -48 -17
0 -31 18 -31 40 0 7 12 13 41 19 3 0 10 -4 17 -11z m142 -3 c15 -18 6 -45 -14
-45 -8 0 -26 4 -40 10 -39 15 -21 44 30 49 6 0 17 -6 24 -14z m4647 0 c7 -20
-24 -55 -49 -55 -21 0 -22 8 -8 44 11 29 47 36 57 11z m129 1 c3 -8 0 -24 -6
-36 -22 -42 -73 -10 -56 36 7 18 55 18 62 0z m-4716 -141 c0 -8 5 -14 12 -12
23 4 19 -30 -4 -37 -54 -14 -70 1 -52 48 8 20 44 21 44 1z m4566 -10 c8 -33
-1 -55 -24 -55 -28 0 -44 24 -36 54 9 36 51 37 60 1z m274 -7 c0 -33 -14 -50
-33 -42 -23 8 -22 51 1 57 30 8 32 7 32 -15z m-130 -1 c0 -7 -6 -22 -14 -33
-14 -18 -16 -18 -32 -2 -9 9 -14 24 -11 32 8 19 57 22 57 3z m-4920 -31 c0
-11 -19 -15 -25 -6 -3 5 1 10 9 10 9 0 16 -2 16 -4z m1134 -48 c-12 -42 -34
-77 -56 -92 -19 -13 -59 -16 -241 -16 l-218 0 -15 35 c-7 19 -14 48 -14 65 l0
30 276 0 275 0 -7 -22z m3193 5 c-3 -10 -8 -39 -12 -65 l-6 -48 -244 0 -244 0
-15 28 c-7 15 -18 44 -24 65 l-10 37 279 0 c262 0 280 -1 276 -17z m-3948 -62
c14 -26 -5 -41 -52 -41 -38 0 -39 1 -33 28 13 53 60 61 85 13z m-305 4 c9 -35
1 -45 -39 -45 -25 0 -35 5 -40 20 -9 28 11 50 45 50 21 0 29 -6 34 -25z m146
4 c17 -30 5 -49 -30 -49 -28 0 -30 3 -30 35 0 31 3 35 25 35 14 0 29 -8 35
-21z m4398 -16 c-3 -35 -6 -38 -35 -41 -24 -2 -33 1 -38 17 -12 39 3 61 41 61
35 0 35 -1 32 -37z m157 7 c0 -21 -5 -26 -32 -28 -31 -3 -33 -1 -33 28 0 29 2
31 33 28 27 -2 32 -7 32 -28z m119 24 c10 -4 16 -18 16 -36 0 -26 -3 -29 -27
-26 -31 3 -42 30 -23 53 14 17 13 17 34 9z m-1776 -33 c8 -4 12 -19 10 -32 -2
-20 -9 -24 -38 -24 -29 0 -36 4 -38 24 -4 24 11 41 38 41 8 0 21 -4 28 -9z
m162 -17 c13 -32 -2 -62 -35 -70 -35 -9 -45 2 -45 52 0 44 0 44 35 44 29 0 37
-5 45 -26z m-310 6 c0 -5 -9 -10 -19 -10 -11 0 -23 5 -26 10 -4 6 5 10 19 10
14 0 26 -4 26 -10z m456 -15 c8 -31 -10 -55 -41 -55 -31 0 -49 24 -41 55 5 21
12 25 41 25 29 0 36 -4 41 -25z m153 7 c12 -23 -11 -62 -38 -62 -21 0 -41 19
-41 40 0 39 61 56 79 22z m91 -28 c0 -8 -4 -12 -10 -9 -5 3 -10 10 -10 16 0 5
5 9 10 9 6 0 10 -7 10 -16z m20 -59 c0 -5 -5 -3 -10 5 -5 8 -10 20 -10 25 0 6
5 3 10 -5 5 -8 10 -19 10 -25z m-3322 -26 c-4 -43 -34 -61 -54 -35 -29 39 -15
61 39 65 15 1 18 -5 15 -30z m122 -6 c0 -33 -24 -25 -28 10 -3 21 0 26 12 21
9 -3 16 -17 16 -31z m4128 0 c-3 -35 -6 -38 -33 -38 -21 0 -33 7 -42 25 -16
32 -1 50 44 50 33 0 34 -1 31 -37z m147 27 c9 -15 -4 -50 -19 -50 -20 0 -39
27 -32 45 6 17 42 20 51 5z m-4534 -27 c11 -30 4 -41 -31 -45 -22 -3 -25 1
-28 35 -3 34 -1 37 23 37 18 0 28 -7 36 -27z m4679 9 c0 -21 -18 -42 -37 -42
-13 0 -18 41 -6 53 14 14 43 7 43 -11z m-4812 -16 c6 -30 -17 -45 -34 -22 -8
11 -14 26 -14 34 0 21 44 10 48 -12z m3470 -2 c26 -18 28 -41 7 -72 -17 -24
-51 -25 -66 -1 -10 16 -12 73 -2 82 11 12 37 8 61 -9z m-303 -10 c32 -21 32
-47 -1 -73 -35 -27 -60 -27 -68 2 -8 30 -8 72 1 80 11 12 43 8 68 -9z m161 -5
c21 -23 14 -41 -30 -73 -27 -21 -28 -21 -42 -2 -15 21 -18 54 -8 80 9 23 57
20 80 -5z m312 -30 c3 -15 -35 -39 -64 -39 -23 0 -29 29 -9 44 25 18 69 15 73
-5z m1023 -59 c10 -6 19 -20 19 -31 0 -17 -5 -20 -32 -17 -28 2 -34 8 -36 31
-4 30 13 36 49 17z m-151 -16 c0 -8 -4 -12 -10 -9 -5 3 -10 10 -10 16 0 5 5 9
10 9 6 0 10 -7 10 -16z m-1366 -54 c19 -7 26 -17 26 -35 0 -18 -7 -28 -26 -35
-40 -16 -44 -13 -44 35 0 48 4 51 44 35z m166 -15 c-13 -16 -70 -21 -70 -7 0
16 13 22 48 22 29 0 33 -2 22 -15z m1346 -37 c9 -15 -27 -41 -39 -29 -13 13
-1 41 17 41 8 0 18 -5 22 -12z m-151 -17 c-3 -6 -11 -11 -17 -11 -6 0 -6 6 2
15 14 17 26 13 15 -4z m-1 -120 c9 -14 -3 -39 -22 -46 -21 -8 -44 17 -36 38 6
18 49 23 58 8z m-274 -158 c0 -7 -7 -13 -15 -13 -8 0 -15 6 -15 13 0 8 7 14
15 14 8 0 15 -6 15 -14z m134 8 c9 -14 -4 -41 -19 -41 -18 0 -26 15 -19 34 7
17 29 21 38 7z m114 -8 c-2 -10 -13 -19 -26 -21 -17 -3 -22 2 -22 17 0 16 6
21 26 21 19 0 25 -5 22 -17z m-383 -110 c-3 -16 -9 -31 -13 -34 -13 -13 -52
10 -52 30 0 21 13 29 49 30 20 1 22 -2 16 -26z m127 -35 c-16 -16 -35 3 -26
26 6 16 8 16 22 2 13 -12 14 -18 4 -28z m128 23 c0 -5 -7 -14 -15 -21 -12 -10
-15 -10 -15 2 0 8 3 18 7 21 9 10 23 9 23 -2z m-419 -71 c10 -6 19 -20 19 -30
0 -16 -7 -20 -30 -20 -25 0 -30 4 -30 23 0 37 10 43 41 27z m-131 -22 c0 -7 3
-23 6 -35 6 -21 3 -23 -30 -23 -32 0 -36 3 -36 25 0 23 22 44 48 45 6 0 12 -6
12 -12z m280 -7 c12 -23 2 -32 -28 -24 -28 7 -30 43 -2 43 10 0 24 -9 30 -19z
m-440 -47 c0 -17 -22 -14 -28 4 -2 7 3 12 12 12 9 0 16 -7 16 -16z m298 -86
c-2 -28 -7 -33 -28 -33 -16 0 -26 6 -28 18 -6 30 6 47 33 47 24 0 26 -3 23
-32z m140 5 c-2 -17 -10 -29 -20 -31 -14 -3 -18 3 -18 27 0 25 4 31 21 31 16
0 20 -5 17 -27z m-448 -38 c0 -41 -2 -45 -24 -45 -30 0 -42 16 -37 50 4 35 9
40 37 40 22 0 24 -4 24 -45z m148 33 c22 -22 14 -48 -13 -48 -20 0 -25 5 -25
23 0 36 16 47 38 25z m-305 -54 c2 -26 -1 -29 -28 -29 -39 0 -47 35 -13 59 26
19 38 10 41 -30z m-155 -11 c2 -8 -5 -13 -17 -13 -21 0 -35 13 -24 24 10 10
36 3 41 -11z m612 -63 c0 -11 -7 -23 -15 -27 -21 -8 -28 1 -20 26 8 27 35 27
35 1z m-142 -26 c4 -30 -25 -59 -44 -43 -17 14 -18 56 -1 62 23 10 42 2 45
-19z m-2878 -5 c0 -25 -33 -22 -38 4 -2 12 3 17 17 17 15 0 21 -6 21 -21z
m2715 1 c23 -26 14 -46 -24 -52 -29 -4 -31 -3 -31 27 0 50 23 60 55 25z m-462
3 c3 -5 8 -22 11 -39 8 -35 -10 -50 -45 -39 -35 11 -19 85 17 85 7 0 15 -3 17
-7z m151 -18 c8 -33 1 -45 -29 -45 -31 0 -38 12 -25 44 13 34 46 35 54 1z
m140 19 c10 -4 16 -18 16 -35 0 -27 -3 -29 -27 -25 -16 2 -31 5 -35 5 -12 1
-9 36 4 49 14 14 20 14 42 6z m-2396 -33 c2 -13 -1 -28 -7 -34 -15 -15 -41 10
-41 40 0 20 4 24 23 21 14 -2 23 -11 25 -27z m144 -10 c-1 -14 -4 -26 -6 -28
-7 -7 -35 9 -40 24 -9 22 3 35 27 31 17 -2 21 -9 19 -27z m1818 -6 c0 -22 -17
-35 -46 -35 -16 0 -19 31 -4 46 5 5 19 10 30 11 15 1 20 -4 20 -22z m-1690 -5
c0 -5 -9 -10 -20 -10 -11 0 -20 5 -20 10 0 6 9 10 20 10 11 0 20 -4 20 -10z
m2138 -93 c3 -28 -31 -71 -51 -64 -7 2 -13 17 -15 34 -2 23 3 35 20 47 29 21
42 16 46 -17z m-158 -11 c0 -28 -24 -50 -45 -42 -22 8 -18 43 7 60 26 18 38
13 38 -18z m310 21 c0 -17 -29 -57 -41 -57 -10 0 -12 30 -3 54 7 19 44 22 44
3z m-2410 -22 c0 -33 -28 -45 -46 -20 -16 22 -2 45 27 45 14 0 19 -7 19 -25z
m135 14 c4 -5 4 -21 1 -35 -9 -34 -56 -35 -56 -1 0 37 39 63 55 36z m143 -21
c-2 -25 -8 -34 -25 -36 -17 -3 -24 3 -29 22 -8 33 1 46 32 46 22 0 25 -4 22
-32z m143 16 c11 -14 10 -19 -10 -35 -43 -35 -66 -16 -41 32 13 23 33 24 51 3z
m1124 -5 c8 -12 -23 -49 -41 -49 -22 0 -27 21 -8 41 19 21 39 25 49 8z m135
-12 c0 -13 -9 -32 -19 -41 -19 -17 -20 -17 -30 3 -6 11 -11 29 -11 40 0 17 6
21 30 21 25 0 30 -4 30 -23z m130 -12 c0 -19 -5 -35 -11 -35 -22 0 -49 21 -49
39 0 24 9 31 37 31 20 0 23 -5 23 -35z m148 8 c-2 -22 -9 -29 -30 -31 -25 -3
-28 0 -28 27 0 28 3 31 31 31 27 0 30 -3 27 -27z m-1398 3 c0 -45 -31 -61 -50
-27 -16 32 -12 41 20 41 19 0 30 -5 30 -14z m138 -23 c4 -26 -1 -28 -29 -13
-27 15 -25 42 4 38 14 -2 23 -11 25 -25z m702 7 c0 -12 -28 -25 -36 -17 -9 9
6 27 22 27 8 0 14 -5 14 -10z m-1112 -104 c2 -3 1 -14 -3 -25 -7 -23 -54 -30
-56 -8 0 6 -2 20 -4 31 -3 16 1 17 27 12 18 -3 33 -8 36 -10z m142 -4 c0 -23
-19 -42 -42 -42 -27 0 -35 30 -13 46 27 20 55 18 55 -4z m130 -4 c0 -13 -5
-30 -10 -38 -8 -13 -13 -12 -32 8 -23 23 -23 23 -4 38 28 20 46 17 46 -8z
m139 13 c12 -8 13 -14 3 -35 -15 -34 -38 -33 -45 1 -8 42 9 55 42 34z m151
-13 c0 -33 -14 -51 -36 -46 -39 7 -29 68 11 68 19 0 25 -5 25 -22z m140 7 c0
-19 -23 -55 -35 -55 -19 0 -21 56 -2 63 12 4 37 -2 37 -8z m125 -20 c0 -23 -5
-30 -19 -30 -24 0 -41 27 -33 49 4 11 15 16 29 14 18 -2 23 -9 23 -33z m151
21 c7 -19 -13 -56 -31 -56 -16 0 -31 43 -20 59 9 16 45 13 51 -3z m132 -18
c-3 -34 -22 -45 -47 -29 -9 6 -11 18 -7 35 5 19 13 26 32 26 22 0 25 -4 22
-32z m149 16 c8 -21 -30 -59 -51 -51 -16 6 -22 48 -9 60 12 13 54 7 60 -9z
m133 -13 c0 -20 -19 -41 -37 -41 -14 0 -28 43 -19 58 9 16 56 1 56 -17z m118
19 c9 0 12 -10 10 -27 -2 -20 -9 -29 -25 -31 -13 -2 -23 -2 -23 0 0 2 -4 18
-10 37 -9 31 -8 33 13 27 12 -3 28 -6 35 -6z m151 -4 c17 -20 2 -46 -25 -46
-29 0 -41 24 -24 45 16 19 34 19 49 1z m146 -16 c0 -20 -6 -26 -27 -28 -30 -4
-35 7 -17 39 14 28 44 20 44 -11z m130 -10 c-5 -8 -11 -8 -17 -2 -6 6 -7 16
-3 22 5 8 11 8 17 2 6 -6 7 -16 3 -22z m1369 -211 c86 -32 93 -41 88 -126 -2
-51 -8 -73 -17 -73 -7 0 -39 12 -71 27 -51 24 -72 28 -149 28 -77 0 -98 -4
-140 -26 -30 -15 -62 -42 -80 -68 -29 -41 -30 -47 -30 -149 0 -100 2 -111 29
-160 50 -90 109 -117 245 -110 68 4 97 10 138 31 l51 26 6 -39 c19 -128 20
-118 -11 -133 -90 -46 -224 -65 -318 -45 -133 27 -260 129 -307 245 -19 49
-23 76 -23 173 0 112 1 117 36 190 66 138 167 208 334 234 55 8 164 -4 219
-25z m-5034 -259 c59 -151 130 -332 158 -401 29 -69 52 -131 52 -137 0 -8 -30
-12 -97 -12 l-98 0 -25 83 -26 82 -148 0 -149 0 -26 -80 -27 -80 -92 -3 c-51
-1 -92 -1 -92 2 0 6 239 686 270 769 l22 58 85 -3 85 -3 108 -275z m745 254
c69 -22 116 -63 155 -136 28 -53 33 -72 34 -133 0 -58 -4 -81 -25 -121 -45
-89 -172 -150 -331 -161 l-88 -6 0 -123 0 -124 -95 0 -95 0 0 413 0 413 198
-3 c140 -3 211 -9 247 -19z m755 -5 c139 -60 204 -261 126 -394 -50 -85 -167
-141 -318 -152 l-88 -6 0 -123 0 -124 -90 0 -90 0 2 413 2 412 202 -2 c184 -2
207 -4 254 -24z m445 -252 c4 -155 4 -308 0 -340 l-7 -57 176 0 176 0 0 -75 0
-75 -265 0 -265 0 0 415 0 415 89 0 88 0 8 -283z m639 246 c3 -21 6 -211 6
-422 l0 -383 -22 6 c-13 3 -54 6 -93 6 l-70 0 1 143 c0 78 1 265 2 415 l2 272
84 0 83 0 7 -37z m626 -28 c16 -36 46 -109 66 -163 40 -106 138 -344 203 -490
22 -51 41 -97 41 -102 0 -6 -41 -10 -94 -10 l-93 0 -34 83 -34 82 -156 3 -156
2 -28 -77 c-15 -43 -31 -82 -35 -87 -8 -8 -170 -9 -178 -1 -5 4 55 166 120
325 40 99 108 280 183 488 3 8 30 12 85 12 l81 0 29 -65z m637 -59 c54 -68
146 -190 203 -271 l105 -147 5 269 5 268 78 3 77 3 0 -418 0 -418 -66 0 -66 0
-86 106 c-48 58 -134 168 -192 243 -58 76 -113 148 -123 160 -18 20 -18 12
-12 -241 l7 -263 -86 0 -86 0 0 415 0 415 69 0 68 0 100 -124z m1938 39 l1
-75 -140 -2 c-78 -2 -160 -2 -183 -2 l-43 0 0 -89 0 -89 151 7 c123 6 153 5
160 -6 5 -8 9 -42 9 -76 l0 -63 -160 0 -160 0 0 -100 0 -100 185 0 185 0 0
-67 c0 -38 -4 -73 -8 -78 -4 -7 -102 -9 -275 -7 l-269 4 4 413 3 414 270 -4
270 -5 0 -75z m-7034 48 c7 -7 13 -32 13 -55 l1 -43 -135 0 c-113 0 -140 3
-163 18 -32 21 -35 49 -6 78 20 20 30 21 149 17 83 -2 133 -7 141 -15z m555
-18 c18 -43 18 -50 -2 -69 -13 -13 -45 -16 -198 -16 -128 0 -186 4 -194 12
-13 13 -15 49 -6 86 6 22 8 22 196 22 l189 0 15 -35z m7529 9 c30 -32 30 -35
6 -65 l-19 -24 -364 -3 c-424 -3 -476 1 -497 39 -13 24 -13 29 2 53 l17 26
416 0 415 0 24 -26z m-7533 -238 c14 -20 8 -53 -13 -72 -19 -17 -44 -18 -437
-19 -453 0 -492 4 -492 49 0 13 8 30 18 39 16 15 66 17 453 19 239 2 441 1
449 -1 8 -3 18 -9 22 -15z m7491 10 c62 -4 97 -25 97 -57 0 -10 -9 -23 -19
-29 -22 -11 -757 -13 -851 -2 -48 6 -56 10 -64 34 -8 22 -6 32 8 47 17 19 30
20 395 15 207 -2 402 -6 434 -8z m-7513 -236 c24 -24 26 -57 3 -82 -15 -16
-35 -18 -213 -18 -171 0 -199 2 -204 16 -10 27 -7 72 7 81 6 4 84 11 172 14
88 3 172 6 188 7 16 1 35 -6 47 -18z m-510 -9 c16 -31 13 -88 -6 -95 -21 -8
-123 -7 -207 3 -49 5 -73 13 -89 29 l-22 22 22 23 c19 18 37 23 110 28 171 11
180 11 192 -10z m8003 2 c24 -28 31 -67 13 -82 -23 -19 -796 -12 -819 8 -19
15 -22 43 -7 72 10 18 25 19 404 19 362 0 394 -1 409 -17z m-7495 -225 c17
-17 15 -48 -5 -70 -14 -16 -34 -18 -194 -18 -148 0 -180 3 -193 16 -19 19 -21
50 -3 61 6 4 82 10 167 13 85 4 169 7 186 8 16 1 35 -3 42 -10z m7100 -3 c2
-2 5 -9 6 -17 2 -7 7 -21 11 -32 5 -12 3 -21 -6 -27 -8 -5 -103 -9 -212 -9
l-198 0 -14 33 c-11 27 -11 34 1 48 12 13 41 15 211 11 109 -2 199 -6 201 -7z
m-4591 -309 c39 -92 113 -299 113 -315 0 -6 -18 -11 -40 -11 -39 0 -40 1 -51
45 l-11 45 -74 0 -73 0 -8 -42 c-8 -41 -10 -43 -51 -49 -32 -4 -42 -2 -42 8 0
13 108 338 130 389 7 18 14 21 42 15 30 -6 36 -14 65 -85z m-1025 74 c72 0 80
-2 113 -31 19 -17 40 -48 46 -69 10 -32 9 -44 -7 -77 -11 -21 -29 -42 -41 -48
-13 -5 -23 -13 -23 -17 0 -3 23 -39 50 -79 28 -40 50 -75 50 -78 0 -3 -22 -5
-48 -3 -48 4 -48 4 -87 70 -33 55 -45 68 -69 70 l-29 4 5 -71 5 -71 -43 0 -44
0 0 206 0 206 23 -6 c12 -3 57 -6 99 -6z m466 -14 c2 -10 1 -29 -3 -43 -6 -25
-8 -25 -80 -21 l-75 3 0 -42 0 -43 70 0 70 0 0 -35 0 -35 -70 0 -70 0 0 -45 0
-45 80 0 80 0 0 -40 0 -40 -120 0 -120 0 0 200 0 199 108 3 c132 4 126 5 130
-16z m792 -74 c0 -55 3 -147 7 -205 l6 -107 -40 0 -40 0 -7 76 c-3 42 -3 134
1 205 l6 129 34 0 33 0 0 -98z m763 77 c15 -7 27 -20 27 -29 0 -31 -24 -40
-87 -34 -55 6 -61 5 -76 -16 -9 -13 -14 -27 -11 -32 3 -5 31 -20 62 -34 83
-37 112 -68 112 -121 0 -37 -6 -50 -39 -86 -38 -40 -42 -42 -94 -41 -89 2
-139 40 -106 80 9 11 26 13 75 8 62 -7 63 -6 69 19 9 35 3 43 -65 77 -63 32
-100 70 -100 105 0 34 51 94 100 117 20 10 99 2 133 -13z m315 -21 c3 -36 3
-37 -43 -43 -25 -4 -59 -5 -76 -1 -30 6 -30 6 -27 -36 l3 -42 57 3 c54 2 58 1
64 -23 11 -46 0 -56 -61 -56 l-55 0 0 -39 c0 -35 3 -39 31 -45 17 -3 48 -6 69
-6 34 0 38 -3 44 -31 3 -17 3 -35 0 -40 -3 -5 -57 -9 -120 -9 l-114 0 0 200 0
199 98 4 c53 1 104 3 112 2 10 0 16 -13 18 -37z m275 10 c59 -42 77 -139 34
-182 -13 -13 -29 -25 -37 -28 -11 -3 -2 -22 33 -71 68 -96 69 -97 9 -97 -43 0
-51 3 -56 23 -10 39 -75 117 -96 117 -19 0 -20 -5 -14 -70 l7 -70 -47 0 -48 0
6 188 c3 103 6 192 6 199 0 29 159 22 203 -9z m155 15 c5 -10 26 -65 47 -123
62 -173 54 -173 109 -6 l47 146 39 0 c22 0 40 -3 40 -6 0 -3 -30 -95 -67 -205
l-66 -199 -43 0 -42 0 -60 168 c-33 92 -62 184 -66 205 -7 36 -6 37 23 37 19
0 34 -7 39 -17z m395 -65 c4 -46 7 -138 7 -205 l0 -123 -40 0 -40 0 0 199 c0
219 -5 202 56 210 7 0 13 -31 17 -81z m330 61 c31 -14 35 -37 9 -68 -16 -21
-18 -22 -56 -6 -32 13 -44 14 -68 4 -46 -19 -68 -55 -68 -110 0 -44 4 -53 40
-89 42 -42 67 -48 116 -30 32 13 54 -2 54 -35 0 -30 -21 -46 -76 -56 -54 -10
-93 3 -147 50 -101 90 -83 279 33 343 39 21 113 20 163 -3z m315 -21 l3 -38
-75 0 -76 0 0 -40 0 -40 54 0 c59 0 80 -14 74 -52 -3 -21 -9 -23 -65 -26 l-63
-3 0 -44 0 -45 75 0 75 0 0 -40 0 -40 -113 0 -114 0 -7 138 c-3 76 -3 166 0
200 l7 61 76 4 c147 7 146 7 149 -35z m-3067 9 c63 -42 87 -136 47 -184 -18
-23 -84 -50 -141 -58 -45 -7 -48 -9 -42 -32 3 -14 3 -44 0 -67 -6 -41 -8 -42
-41 -38 l-34 4 0 168 c0 92 3 182 6 199 l7 31 82 0 c69 0 88 -4 116 -23z m816
3 c51 -30 66 -62 61 -122 -5 -49 -24 -78 -59 -90 -7 -2 2 -25 20 -56 17 -29
37 -66 46 -82 l16 -30 -45 0 c-44 0 -44 0 -81 66 -31 56 -62 84 -91 84 -2 0
-4 -34 -4 -75 l0 -75 -40 0 -40 0 0 118 c0 64 3 154 7 200 l6 82 86 0 c68 0
93 -4 118 -20z m-1877 -183 l0 -34 -112 -6 c-168 -10 -861 -8 -877 2 -9 6 -11
18 -7 35 l6 25 158 4 c86 1 309 4 495 5 l337 2 0 -33z m5308 26 c38 -5 42 -8
42 -34 0 -24 -5 -29 -32 -34 -18 -3 -249 -4 -513 -3 l-480 3 -3 32 -3 32 93 4
c150 6 849 6 896 0z"/>
<path d="M7472 9274 c-33 -22 -43 -55 -31 -98 11 -40 38 -62 87 -72 44 -9 92
38 92 91 0 74 -88 121 -148 79z"/>
<path d="M7111 8901 c-118 -119 -216 -222 -219 -229 -8 -26 27 -62 61 -62 46
0 75 21 237 174 181 171 240 233 240 253 0 9 -11 31 -26 50 -46 60 -55 55
-293 -186z"/>
<path d="M5846 7048 l-33 -33 -6 -253 c-7 -324 2 -937 14 -979 15 -48 81 -103
124 -103 39 0 64 20 91 72 15 30 17 86 16 633 0 330 -1 608 -1 617 -1 9 -15
30 -32 47 -27 27 -37 31 -86 31 -49 0 -59 -4 -87 -32z m108 -74 c14 -14 16
-79 16 -569 0 -336 -4 -564 -10 -579 -12 -32 -45 -34 -61 -5 -8 15 -10 177 -7
586 4 472 7 566 19 574 19 12 25 11 43 -7z"/>
<path d="M6708 7286 c-109 -32 -210 -122 -249 -224 -28 -72 -30 -196 -5 -262
79 -212 316 -311 505 -210 75 40 140 109 181 194 65 131 32 291 -83 407 -86
87 -236 127 -349 95z m126 -148 c3 -35 8 -99 11 -143 3 -44 13 -124 21 -178
20 -121 12 -150 -38 -145 -38 4 -38 4 -68 195 -24 152 -24 289 0 317 7 9 25
16 40 16 28 0 29 -2 34 -62z m166 -39 c43 -54 60 -101 60 -165 0 -57 -32 -154
-52 -154 -11 0 -59 77 -69 112 -12 42 -31 256 -24 268 10 16 41 -6 85 -61z
m-365 -116 c21 -43 44 -103 51 -133 15 -60 19 -150 7 -150 -24 0 -77 47 -110
96 -33 50 -38 64 -38 118 0 58 27 146 45 146 4 0 24 -35 45 -77z"/>
<path d="M6703 6375 c-182 -56 -290 -227 -263 -416 18 -128 92 -229 208 -286
46 -23 73 -29 145 -32 83 -3 93 -1 152 28 115 57 211 195 222 321 15 167 -100
338 -261 385 -60 18 -146 18 -203 0z m117 -90 c0 -26 32 -300 36 -306 8 -13
32 -203 27 -216 -7 -18 -31 -23 -58 -13 -28 11 -40 48 -50 160 -3 41 -16 111
-27 155 -21 83 -20 184 3 211 11 13 69 20 69 9z m168 -90 c46 -52 72 -119 71
-179 0 -52 -30 -131 -49 -131 -9 0 -32 34 -55 79 -38 75 -40 83 -44 188 -3
108 -3 110 17 99 11 -6 38 -31 60 -56z m-278 34 c20 -36 6 -41 -25 -9 -27 28
-28 30 -7 30 12 0 26 -9 32 -21z m-103 -102 c75 -110 134 -337 87 -337 -75 0
-162 140 -151 243 7 62 25 127 35 127 4 0 17 -15 29 -33z"/>
<path d="M6602 5453 c-99 -4 -103 -5 -112 -29 -6 -14 -10 -47 -10 -73 0 -42 3
-49 25 -59 37 -17 566 -17 583 0 14 14 16 126 2 148 -8 12 -42 15 -197 16
-103 0 -234 -1 -291 -3z"/>
<path d="M3841 7156 c2 -2 40 -6 84 -8 44 -3 69 -2 55 2 -25 8 -147 13 -139 6z"/>
<path d="M2380 3067 c0 -8 -15 -64 -34 -124 -18 -59 -36 -120 -40 -135 l-6
-28 96 0 c88 0 96 2 89 18 -4 9 -27 76 -52 147 -47 135 -53 149 -53 122z"/>
<path d="M3070 3000 l0 -143 81 6 c48 4 92 13 106 22 72 47 84 159 24 218 -30
30 -36 32 -121 35 l-90 4 0 -142z"/>
<path d="M3810 3003 l0 -138 78 5 c82 5 120 21 146 63 26 42 29 83 7 132 -25
57 -63 75 -161 75 l-70 0 0 -137z"/>
<path d="M5637 2937 c-26 -79 -47 -146 -47 -150 0 -4 45 -7 100 -7 55 0 100 4
100 9 0 8 -99 283 -104 288 -1 1 -23 -62 -49 -140z"/>
<path d="M4280 2178 c-6 -24 -15 -55 -20 -70 l-9 -28 51 0 c44 0 49 2 43 18
-4 9 -16 41 -27 70 -11 28 -21 52 -23 52 -2 0 -9 -19 -15 -42z"/>
<path d="M3298 2195 l-3 -55 57 0 c47 0 58 3 63 19 16 52 -20 91 -85 91 -27 0
-28 -2 -32 -55z"/>
<path d="M5830 2200 c0 -27 0 -53 0 -57 1 -11 72 -4 87 9 7 6 13 23 13 39 0
33 -32 59 -72 59 -27 0 -28 -2 -28 -50z"/>
<path d="M3950 2184 l0 -67 41 6 c52 7 63 18 63 63 0 43 -23 64 -71 64 l-33 0
0 -66z"/>
<path d="M4760 2196 c0 -30 5 -58 10 -61 6 -4 29 -4 51 0 51 9 68 38 48 81
-12 25 -21 29 -62 32 l-47 3 0 -55z"/>
</g>
</svg>
