<?xml version="1.0" standalone="no"?>
<!DOCTYPE svg PUBLIC "-//W3C//DTD SVG 20010904//EN"
 "http://www.w3.org/TR/2001/REC-SVG-20010904/DTD/svg10.dtd">
<svg version="1.0" xmlns="http://www.w3.org/2000/svg"
 width="400.000000pt" height="359.000000pt" viewBox="0 0 400.000000 359.000000"
 preserveAspectRatio="xMidYMid meet">

<g transform="translate(0.000000,359.000000) scale(0.100000,-0.100000)"
fill="#000000" stroke="none">
<path d="M1072 3561 c-18 -12 -41 -35 -52 -53 -19 -31 -20 -51 -20 -290 l0
-258 -250 0 c-276 0 -296 -3 -343 -59 -48 -58 -29 -166 35 -203 17 -9 95 -14
288 -18 l265 -5 5 -267 c5 -250 6 -268 26 -295 60 -81 177 -79 231 4 16 24 19
61 23 293 l5 265 265 5 c281 5 290 7 329 56 32 41 29 123 -6 165 -47 56 -67
59 -342 59 l-250 0 -3 270 -3 270 -37 36 c-46 47 -114 57 -166 25z"/>
<path d="M1522 3562 c-70 -38 -94 -131 -52 -200 39 -64 2 -62 947 -62 811 0
860 -1 898 -19 46 -20 92 -70 101 -107 11 -44 -2 -112 -29 -148 -52 -68 -35
-66 -644 -66 -519 0 -550 -1 -590 -20 -77 -34 -106 -127 -63 -197 36 -60 -1
-58 823 -63 l759 -5 19 -24 c18 -23 19 -56 19 -1172 0 -1136 0 -1149 -20
-1169 -20 -20 -33 -20 -1195 -20 -1162 0 -1175 0 -1195 20 -20 20 -20 33 -20
743 0 668 -1 725 -18 756 -50 99 -177 105 -240 12 l-22 -35 2 -765 3 -766 25
-50 c31 -64 101 -134 165 -165 l50 -25 1245 0 1245 0 67 33 c75 36 123 88 160
168 l23 49 0 1530 0 1530 -26 55 c-36 77 -77 121 -151 161 l-63 34 -1095 2
c-1031 2 -1097 1 -1128 -15z"/>
<path d="M2301 2405 c-200 -45 -355 -130 -494 -272 -129 -131 -201 -260 -254
-453 -28 -102 -25 -348 5 -459 135 -496 612 -800 1112 -710 369 67 676 360
765 731 9 35 18 106 21 158 29 446 -259 856 -693 986 -75 23 -111 27 -243 30
-110 3 -174 -1 -219 -11z m363 -285 c106 -27 203 -81 287 -158 l70 -65 -42
-41 c-86 -85 -131 -222 -132 -396 0 -168 51 -320 134 -394 l40 -37 -21 -27
c-55 -70 -181 -152 -297 -193 -83 -30 -274 -38 -363 -15 -239 61 -420 228
-497 461 -23 70 -27 96 -26 205 0 107 3 136 26 205 58 175 175 314 339 400
141 74 325 95 482 55z"/>
</g>
</svg>
